<svg width="361" height="37" viewBox="0 0 361 37" fill="none" xmlns="http://www.w3.org/2000/svg">
<path d="M8.84922 29.4H20.0492V36H0.299219V0.899999H8.84922V29.4ZM32.6773 7.75V14.85H44.1273V21.45H32.6773V29.15H45.6273V36H24.1273V0.899999H45.6273V7.75H32.6773ZM73.0281 29.8H59.9281L57.8281 36H48.8781L61.5781 0.899999H71.4781L84.1781 36H75.1281L73.0281 29.8ZM70.8281 23.2L66.4781 10.35L62.1781 23.2H70.8281ZM105.943 36L98.6434 22.75H96.5934V36H88.0434V0.899999H102.393C105.16 0.899999 107.51 1.38333 109.443 2.35C111.41 3.31666 112.877 4.65 113.843 6.35C114.81 8.01666 115.293 9.88333 115.293 11.95C115.293 14.2833 114.627 16.3667 113.293 18.2C111.993 20.0333 110.06 21.3333 107.493 22.1L115.593 36H105.943ZM96.5934 16.7H101.893C103.46 16.7 104.627 16.3167 105.393 15.55C106.193 14.7833 106.593 13.7 106.593 12.3C106.593 10.9667 106.193 9.91667 105.393 9.15C104.627 8.38333 103.46 8 101.893 8H96.5934V16.7ZM152.061 36H143.511L129.211 14.35V36H120.661V0.899999H129.211L143.511 22.65V0.899999H152.061V36ZM166.808 7.75V14.85H178.258V21.45H166.808V29.15H179.758V36H158.258V0.899999H179.758V7.75H166.808ZM216.709 36H208.159L193.859 14.35V36H185.309V0.899999H193.859L208.159 22.65V0.899999H216.709V36ZM246.207 12C245.573 10.8333 244.657 9.95 243.457 9.35C242.29 8.71666 240.907 8.4 239.307 8.4C236.54 8.4 234.323 9.31666 232.657 11.15C230.99 12.95 230.157 15.3667 230.157 18.4C230.157 21.6333 231.023 24.1667 232.757 26C234.523 27.8 236.94 28.7 240.007 28.7C242.107 28.7 243.873 28.1667 245.307 27.1C246.773 26.0333 247.84 24.5 248.507 22.5H237.657V16.2H256.257V24.15C255.623 26.2833 254.54 28.2667 253.007 30.1C251.507 31.9333 249.59 33.4167 247.257 34.55C244.923 35.6833 242.29 36.25 239.357 36.25C235.89 36.25 232.79 35.5 230.057 34C227.357 32.4667 225.24 30.35 223.707 27.65C222.207 24.95 221.457 21.8667 221.457 18.4C221.457 14.9333 222.207 11.85 223.707 9.15C225.24 6.41667 227.357 4.3 230.057 2.8C232.757 1.26666 235.84 0.499998 239.307 0.499998C243.507 0.499998 247.04 1.51666 249.907 3.55C252.807 5.58333 254.723 8.4 255.657 12H246.207ZM269.543 29.4H280.743V36H260.993V0.899999H269.543V29.4ZM293.371 0.899999V36H284.821V0.899999H293.371ZM312.267 36.35C309.7 36.35 307.4 35.9333 305.367 35.1C303.333 34.2667 301.7 33.0333 300.467 31.4C299.267 29.7667 298.633 27.8 298.567 25.5H307.667C307.8 26.8 308.25 27.8 309.017 28.5C309.783 29.1667 310.783 29.5 312.017 29.5C313.283 29.5 314.283 29.2167 315.017 28.65C315.75 28.05 316.117 27.2333 316.117 26.2C316.117 25.3333 315.817 24.6167 315.217 24.05C314.65 23.4833 313.933 23.0167 313.067 22.65C312.233 22.2833 311.033 21.8667 309.467 21.4C307.2 20.7 305.35 20 303.917 19.3C302.483 18.6 301.25 17.5667 300.217 16.2C299.183 14.8333 298.667 13.05 298.667 10.85C298.667 7.58333 299.85 5.03333 302.217 3.2C304.583 1.33333 307.667 0.399999 311.467 0.399999C315.333 0.399999 318.45 1.33333 320.817 3.2C323.183 5.03333 324.45 7.6 324.617 10.9H315.367C315.3 9.76667 314.883 8.88333 314.117 8.25C313.35 7.58333 312.367 7.25 311.167 7.25C310.133 7.25 309.3 7.53333 308.667 8.1C308.033 8.63333 307.717 9.41666 307.717 10.45C307.717 11.5833 308.25 12.4667 309.317 13.1C310.383 13.7333 312.05 14.4167 314.317 15.15C316.583 15.9167 318.417 16.65 319.817 17.35C321.25 18.05 322.483 19.0667 323.517 20.4C324.55 21.7333 325.067 23.45 325.067 25.55C325.067 27.55 324.55 29.3667 323.517 31C322.517 32.6333 321.05 33.9333 319.117 34.9C317.183 35.8667 314.9 36.35 312.267 36.35ZM360.729 0.899999V36H352.179V21.55H338.879V36H330.329V0.899999H338.879V14.65H352.179V0.899999H360.729Z" fill="black"/>
</svg>
